<svg preserveAspectRatio="none" width="100%" height="100%" overflow="visible" style="display: block;" viewBox="0 0 13 13" fill="none" xmlns="http://www.w3.org/2000/svg">
<path id="Vector" d="M6.9998 3.24972V5.82534L9.13542 7.10659C9.22178 7.15628 9.29738 7.22267 9.3578 7.30189C9.41821 7.38112 9.46224 7.47158 9.4873 7.56801C9.51236 7.66444 9.51796 7.76489 9.50377 7.86351C9.48958 7.96213 9.45589 8.05693 9.40465 8.14237C9.35342 8.22782 9.28567 8.3022 9.20537 8.36118C9.12506 8.42015 9.03382 8.46254 8.93695 8.48586C8.84009 8.50917 8.73955 8.51296 8.6412 8.49699C8.54286 8.48102 8.44868 8.44561 8.36417 8.39284L5.86418 6.89284C5.75307 6.82624 5.66111 6.73199 5.59726 6.61929C5.5334 6.50658 5.49982 6.37926 5.4998 6.24972V3.24972C5.4998 3.05081 5.57882 2.86004 5.71947 2.71939C5.86012 2.57874 6.05089 2.49972 6.2498 2.49972C6.44871 2.49972 6.63948 2.57874 6.78013 2.71939C6.92078 2.86004 6.9998 3.05081 6.9998 3.24972ZM12.2498 1.49972C12.0509 1.49972 11.8601 1.57874 11.7195 1.71939C11.5788 1.86004 11.4998 2.05081 11.4998 2.24972V2.71034C11.2367 2.41847 10.9636 2.12847 10.6692 1.83034C9.8005 0.961764 8.69513 0.368431 7.49117 0.124482C6.28721 -0.119467 5.03806 -0.00321457 3.89979 0.458714C2.76153 0.920642 1.78463 1.70776 1.09115 2.72172C0.397674 3.73568 0.0183766 4.93152 0.000650956 6.15982C-0.0170747 7.38811 0.327557 8.5944 0.991485 9.62795C1.65541 10.6615 2.6092 11.4765 3.73366 11.9711C4.85812 12.4656 6.1034 12.6179 7.31389 12.4088C8.52439 12.1997 9.64642 11.6385 10.5398 10.7953C10.6845 10.6588 10.769 10.4703 10.7748 10.2714C10.7805 10.0725 10.707 9.87943 10.5704 9.73472C10.4338 9.59001 10.2454 9.50549 10.0465 9.49974C9.84755 9.494 9.65451 9.56751 9.5098 9.70409C8.83094 10.3448 7.97837 10.7712 7.05858 10.9302C6.13878 11.0891 5.19254 10.9736 4.33803 10.5979C3.48353 10.2223 2.75864 9.60319 2.25392 8.81798C1.74919 8.03278 1.487 7.11627 1.5001 6.18293C1.51319 5.24959 1.80099 4.3408 2.32754 3.57006C2.8541 2.79932 3.59606 2.20081 4.46077 1.84928C5.32548 1.49775 6.27459 1.40878 7.18956 1.59349C8.10454 1.77819 8.94481 2.22839 9.60542 2.88784C9.97542 3.26222 10.3123 3.62472 10.6392 3.99972H9.7498C9.55089 3.99972 9.36012 4.07874 9.21947 4.21939C9.07882 4.36004 8.9998 4.55081 8.9998 4.74972C8.9998 4.94863 9.07882 5.1394 9.21947 5.28005C9.36012 5.4207 9.55089 5.49972 9.7498 5.49972H12.2498C12.4487 5.49972 12.6395 5.4207 12.7801 5.28005C12.9208 5.1394 12.9998 4.94863 12.9998 4.74972V2.24972C12.9998 2.05081 12.9208 1.86004 12.7801 1.71939C12.6395 1.57874 12.4487 1.49972 12.2498 1.49972Z" fill="var(--fill-0, #AAAAB1)"/>
</svg>
