<svg width="24" height="24" viewBox="0 0 24 24" fill="none" xmlns="http://www.w3.org/2000/svg">
<g clip-path="url(#clip0_2137_22121)">
<path d="M0 12C0 5.3726 5.3726 0 12 0C18.6274 0 24 5.3726 24 12C24 18.6274 18.6274 24 12 24C5.3726 24 0 18.6274 0 12Z" fill="#FFE812"/>
<path d="M12 5.5C7.5817 5.5 4 8.3241 4 11.8077C4 14.0599 5.4974 16.0361 7.74985 17.1521C7.6273 17.5747 6.9624 19.8709 6.9359 20.0513C6.9359 20.0513 6.92 20.1868 7.00775 20.2385C7.09555 20.2901 7.19875 20.25 7.19875 20.25C7.45045 20.2149 10.1175 18.3415 10.5791 18.0162C11.0403 18.0815 11.5151 18.1154 12 18.1154C16.4183 18.1154 20 15.2914 20 11.8077C20 8.3241 16.4183 5.5 12 5.5Z" fill="#381F1F"/>
<path d="M8.75879 9.92285C9.00849 9.92291 9.21191 10.1259 9.21191 10.375C9.21178 10.624 9.00836 10.8271 8.75879 10.8271H8.03809V13.5684C8.03809 13.8114 7.83162 14.0097 7.57715 14.0098C7.3226 14.0098 7.11523 13.8115 7.11523 13.5684V10.8271H6.39551C6.14584 10.8271 5.94252 10.624 5.94238 10.375C5.94238 10.1258 6.14581 9.92285 6.39551 9.92285H8.75879ZM10.3076 9.92285C10.6089 9.92976 10.8449 10.1575 10.9229 10.3789L12.0264 13.2832C12.1668 13.7195 12.0442 13.881 11.917 13.9395C11.825 13.9814 11.7252 14.003 11.624 14.0029C11.4317 14.0029 11.2848 13.9253 11.2402 13.7998L11.0117 13.2012H9.60449L9.375 13.7998C9.33072 13.9252 9.18362 14.0029 8.99121 14.0029C8.89007 14.003 8.79019 13.9815 8.69824 13.9395C8.57099 13.8808 8.44872 13.7195 8.58887 13.2842L9.69238 10.3789C9.77018 10.1579 10.007 9.9297 10.3076 9.92285ZM15.333 9.92285C15.5876 9.92285 15.7949 10.1302 15.7949 10.3848V11.376L17.083 10.0889C17.1492 10.0227 17.2401 9.98633 17.3389 9.98633C17.4539 9.98638 17.5696 10.0356 17.6562 10.1221C17.7371 10.2029 17.7853 10.3071 17.792 10.415C17.7987 10.5238 17.7627 10.624 17.6904 10.6963L16.6387 11.7471L17.7744 13.2529C17.811 13.3012 17.8383 13.3564 17.8535 13.415C17.8687 13.4736 17.8719 13.5348 17.8633 13.5947C17.8551 13.6547 17.8344 13.7124 17.8037 13.7646C17.773 13.8169 17.7321 13.8621 17.6836 13.8984C17.6038 13.9591 17.5065 13.9924 17.4062 13.9922C17.3348 13.9925 17.2642 13.9762 17.2002 13.9443C17.1362 13.9125 17.0809 13.8658 17.0381 13.8086L15.9551 12.374L15.7949 12.5342V13.542C15.7947 13.6643 15.7465 13.7817 15.6602 13.8682C15.5736 13.9547 15.4554 14.0027 15.333 14.0029C15.0787 14.0027 14.8721 13.7963 14.8721 13.542V10.3848C14.8721 10.1304 15.0787 9.92308 15.333 9.92285ZM12.7979 9.92285C13.0576 9.92285 13.2695 10.1302 13.2695 10.3848V13.0957H14.25C14.4938 13.0957 14.6921 13.2855 14.6924 13.5186C14.6924 13.7518 14.4939 13.9424 14.25 13.9424H12.7695C12.5256 13.9424 12.3271 13.7518 12.3271 13.5186V10.3848C12.3271 10.1303 12.5382 9.923 12.7979 9.92285ZM9.84668 12.3838H10.7686L10.3076 11.0742L9.84668 12.3838Z" fill="#FFE812"/>
</g>
<defs>
<clipPath id="clip0_2137_22121">
<rect width="24" height="24" fill="white"/>
</clipPath>
</defs>
</svg>
