<svg preserveAspectRatio="none" width="100%" height="100%" overflow="visible" style="display: block;" viewBox="0 0 12 14" fill="none" xmlns="http://www.w3.org/2000/svg">
<path id="Vector" d="M11 4.5H9V3C9 2.20435 8.68393 1.44129 8.12132 0.87868C7.55871 0.31607 6.79565 0 6 0C5.20435 0 4.44129 0.31607 3.87868 0.87868C3.31607 1.44129 3 2.20435 3 3V4.5H1C0.734784 4.5 0.48043 4.60536 0.292893 4.79289C0.105357 4.98043 0 5.23478 0 5.5V12.5C0 12.7652 0.105357 13.0196 0.292893 13.2071C0.48043 13.3946 0.734784 13.5 1 13.5H11C11.2652 13.5 11.5196 13.3946 11.7071 13.2071C11.8946 13.0196 12 12.7652 12 12.5V5.5C12 5.23478 11.8946 4.98043 11.7071 4.79289C11.5196 4.60536 11.2652 4.5 11 4.5ZM6.5 9.41438V11C6.5 11.1326 6.44732 11.2598 6.35355 11.3536C6.25979 11.4473 6.13261 11.5 6 11.5C5.86739 11.5 5.74021 11.4473 5.64645 11.3536C5.55268 11.2598 5.5 11.1326 5.5 11V9.41438C5.16639 9.29643 4.88522 9.06434 4.70618 8.75914C4.52715 8.45393 4.46177 8.09526 4.5216 7.74651C4.58144 7.39776 4.76264 7.08139 5.03317 6.85332C5.3037 6.62525 5.64616 6.50016 6 6.50016C6.35384 6.50016 6.6963 6.62525 6.96683 6.85332C7.23736 7.08139 7.41856 7.39776 7.4784 7.74651C7.53823 8.09526 7.47285 8.45393 7.29382 8.75914C7.11478 9.06434 6.83361 9.29643 6.5 9.41438ZM8 4.5H4V3C4 2.46957 4.21071 1.96086 4.58579 1.58579C4.96086 1.21071 5.46957 1 6 1C6.53043 1 7.03914 1.21071 7.41421 1.58579C7.78929 1.96086 8 2.46957 8 3V4.5Z" fill="var(--fill-0, #DFDFE2)"/>
</svg>
