<svg preserveAspectRatio="none" width="100%" height="100%" overflow="visible" style="display: block;" viewBox="0 0 62 60" fill="none" xmlns="http://www.w3.org/2000/svg">
<path id="Vector" d="M24.0625 37.1875C24.0625 37.7677 23.832 38.3241 23.4218 38.7343C23.0116 39.1445 22.4552 39.375 21.875 39.375H10.9375C10.3573 39.375 9.80094 39.1445 9.3907 38.7343C8.98047 38.3241 8.75 37.7677 8.75 37.1875C8.75 36.6073 8.98047 36.0509 9.3907 35.6407C9.80094 35.2305 10.3573 35 10.9375 35H21.875C22.4552 35 23.0116 35.2305 23.4218 35.6407C23.832 36.0509 24.0625 36.6073 24.0625 37.1875ZM41.5625 4.375H48.125C48.7052 4.375 49.2616 4.14453 49.6718 3.7343C50.082 3.32406 50.3125 2.76766 50.3125 2.1875C50.3125 1.60734 50.082 1.05094 49.6718 0.640704C49.2616 0.230468 48.7052 0 48.125 0H39.375C38.7948 0 38.2384 0.230468 37.8282 0.640704C37.418 1.05094 37.1875 1.60734 37.1875 2.1875V10.9375H41.5625V4.375ZM61.25 27.3438V43.75C61.25 44.9103 60.7891 46.0231 59.9686 46.8436C59.1481 47.6641 58.0353 48.125 56.875 48.125H32.8125V56.875C32.8125 57.4552 32.582 58.0116 32.1718 58.4218C31.7616 58.832 31.2052 59.0625 30.625 59.0625C30.0448 59.0625 29.4884 58.832 29.0782 58.4218C28.668 58.0116 28.4375 57.4552 28.4375 56.875V48.125H4.375C3.21468 48.125 2.10188 47.6641 1.28141 46.8436C0.460936 46.0231 0 44.9103 0 43.75V27.3438C0.00506574 22.9941 1.7352 18.824 4.81087 15.7484C7.88655 12.6727 12.0566 10.9426 16.4062 10.9375H37.1875V35C37.1875 35.5802 37.418 36.1366 37.8282 36.5468C38.2384 36.957 38.7948 37.1875 39.375 37.1875C39.9552 37.1875 40.5116 36.957 40.9218 36.5468C41.332 36.1366 41.5625 35.5802 41.5625 35V10.9375H44.8438C49.1934 10.9426 53.3635 12.6727 56.4391 15.7484C59.5148 18.824 61.2449 22.9941 61.25 27.3438ZM28.4375 27.3438C28.4375 24.1529 27.1699 21.0927 24.9136 18.8364C22.6573 16.5801 19.5971 15.3125 16.4062 15.3125C13.2154 15.3125 10.1552 16.5801 7.89887 18.8364C5.64257 21.0927 4.375 24.1529 4.375 27.3438V43.75H28.4375V27.3438Z" fill="var(--fill-0, #34343D)"/>
</svg>
