<svg preserveAspectRatio="none" width="100%" height="100%" overflow="visible" style="display: block;" viewBox="0 0 25 25" fill="none" xmlns="http://www.w3.org/2000/svg">
<path id="Vector" d="M12.1875 0C9.77705 0 7.42072 0.714784 5.41649 2.05396C3.41227 3.39314 1.85017 5.29657 0.927724 7.52354C0.00528065 9.75052 -0.236073 12.201 0.234185 14.5652C0.704442 16.9293 1.86519 19.1009 3.56964 20.8054C5.27409 22.5098 7.4457 23.6706 9.80984 24.1408C12.174 24.6111 14.6245 24.3697 16.8515 23.4473C19.0784 22.5248 20.9819 20.9627 22.321 18.9585C23.6602 16.9543 24.375 14.598 24.375 12.1875C24.3716 8.95622 23.0865 5.85826 20.8016 3.5734C18.5167 1.28854 15.4188 0.00341229 12.1875 0ZM16.9395 12.9586L10.8457 17.1773C10.705 17.2746 10.5404 17.3316 10.3697 17.342C10.199 17.3524 10.0287 17.316 9.87718 17.2365C9.7257 17.1571 9.59883 17.0378 9.51032 16.8914C9.4218 16.7451 9.37501 16.5773 9.37501 16.4062V7.96875C9.37501 7.79771 9.4218 7.62993 9.51032 7.48358C9.59883 7.33723 9.7257 7.21788 9.87718 7.13846C10.0287 7.05904 10.199 7.02257 10.3697 7.03301C10.5404 7.04344 10.705 7.10038 10.8457 7.19766L16.9395 11.4164C17.0642 11.5027 17.1661 11.6179 17.2365 11.7522C17.307 11.8865 17.3437 12.0359 17.3437 12.1875C17.3437 12.3391 17.307 12.4885 17.2365 12.6228C17.1661 12.7571 17.0642 12.8723 16.9395 12.9586Z" fill="var(--fill-0, #CCCCD6)"/>
</svg>
