<svg width="24" height="24" viewBox="0 0 24 24" fill="none" xmlns="http://www.w3.org/2000/svg">
<g clip-path="url(#clip0_2105_6297)">
<rect width="24" height="24" rx="12" fill="#6E6E6E"/>
<path d="M16.5 10.5C16.5 12.9853 14.4853 15 12 15C9.51472 15 7.5 12.9853 7.5 10.5C7.5 8.01472 9.51472 6 12 6C14.4853 6 16.5 8.01472 16.5 10.5Z" fill="#E6E6E6"/>
<path d="M1.5 24.3589C1.5 19.8805 5.13047 16.25 9.60889 16.25H14.3911C18.8695 16.25 22.5 19.8805 22.5 24.3589C22.5 28.8373 18.8695 32.4678 14.3911 32.4678H9.60889C5.13047 32.4678 1.5 28.8373 1.5 24.3589Z" fill="#E6E6E6"/>
</g>
<rect x="0.5" y="0.5" width="23" height="23" rx="11.5" stroke="white" stroke-opacity="0.1"/>
<defs>
<clipPath id="clip0_2105_6297">
<rect width="24" height="24" rx="12" fill="white"/>
</clipPath>
</defs>
</svg>
