<svg preserveAspectRatio="none" width="100%" height="100%" overflow="visible" style="display: block;" viewBox="0 0 27 27" fill="none" xmlns="http://www.w3.org/2000/svg">
<path id="Vector" d="M26.1796 2.37848C26.1796 2.37848 26.1796 2.3902 26.1796 2.39606L19.3593 24.889C19.256 25.2544 19.0435 25.5794 18.7503 25.8205C18.457 26.0616 18.0971 26.2072 17.7187 26.2379C17.6647 26.2425 17.6108 26.2449 17.5569 26.2449C17.2023 26.246 16.8548 26.1456 16.5554 25.9556C16.2559 25.7656 16.0171 25.4939 15.8671 25.1726L11.6015 16.4187C11.5588 16.331 11.5445 16.2321 11.5607 16.1359C11.5769 16.0397 11.6227 15.9509 11.6917 15.882L18.4792 9.0945C18.6476 8.91725 18.7401 8.68124 18.737 8.43677C18.7338 8.19231 18.6353 7.95874 18.4624 7.78586C18.2896 7.61299 18.056 7.51448 17.8115 7.51135C17.5671 7.50822 17.3311 7.60071 17.1538 7.76911L10.3628 14.5566C10.2938 14.6256 10.2051 14.6714 10.1089 14.6876C10.0127 14.7038 9.9138 14.6895 9.82608 14.6468L1.06397 10.3824C0.721333 10.218 0.436737 9.95339 0.247892 9.62361C0.0590475 9.29383 -0.0251308 8.91445 0.00651265 8.53575C0.0381561 8.15704 0.184127 7.79689 0.425083 7.50302C0.666038 7.20915 0.990601 6.99544 1.35576 6.8902L23.8487 0.0698878H23.8663C24.1866 -0.0200871 24.525 -0.0232413 24.8469 0.0607486C25.1687 0.144739 25.4625 0.312849 25.6979 0.547831C25.9334 0.782813 26.1021 1.07621 26.1867 1.39791C26.2714 1.71962 26.2689 2.05805 26.1796 2.37848Z" fill="var(--fill-0, #CCCCD6)"/>
</svg>
