<svg preserveAspectRatio="none" width="100%" height="100%" overflow="visible" style="display: block;" viewBox="0 0 27 25" fill="none" xmlns="http://www.w3.org/2000/svg">
<path id="Vector" d="M26.0106 9.75359C25.9845 9.62157 25.9303 9.49672 25.8516 9.38753C25.773 9.27834 25.6717 9.18736 25.5548 9.12078L22.0591 7.12859L22.045 3.18875C22.0446 3.05306 22.0147 2.91908 21.9575 2.79607C21.9002 2.67305 21.8169 2.56393 21.7134 2.47625C20.4453 1.40363 18.9851 0.581637 17.4103 0.0539815C17.2862 0.0120048 17.1548 -0.00352972 17.0244 0.0083786C16.894 0.0202869 16.7676 0.059374 16.6532 0.123122L13.1271 2.09422L9.59737 0.119606C9.48294 0.0554993 9.35633 0.0161171 9.22572 0.00400548C9.09512 -0.0081061 8.96343 0.00732248 8.83916 0.0492939C7.2653 0.580338 5.80663 1.40551 4.54073 2.48093C4.43733 2.56849 4.35414 2.67742 4.29689 2.80022C4.23963 2.92302 4.20968 3.05677 4.20909 3.19226L4.19151 7.13562L0.695804 9.12781C0.578853 9.19439 0.477606 9.28537 0.398947 9.39456C0.320287 9.50376 0.266058 9.6286 0.239945 9.76062C-0.0799816 11.3683 -0.0799816 13.0233 0.239945 14.6309C0.266058 14.763 0.320287 14.8878 0.398947 14.997C0.477606 15.1062 0.578853 15.1972 0.695804 15.2637L4.19151 17.2559L4.20557 21.1969C4.20599 21.3326 4.23587 21.4666 4.29313 21.5896C4.35038 21.7126 4.43366 21.8218 4.53721 21.9094C5.80526 22.9821 7.26552 23.8041 8.84033 24.3317C8.96435 24.3737 9.09579 24.3892 9.22617 24.3773C9.35656 24.3654 9.483 24.3263 9.59737 24.2626L13.1271 22.2856L16.6567 24.2602C16.7964 24.3381 16.9539 24.3784 17.1138 24.3774C17.2162 24.3774 17.3179 24.3608 17.4149 24.3282C18.9884 23.7974 20.447 22.9731 21.7134 21.8989C21.8168 21.8113 21.9 21.7024 21.9572 21.5796C22.0145 21.4568 22.0444 21.3231 22.045 21.1876L22.0626 17.2442L25.5583 15.252C25.6753 15.1854 25.7765 15.0945 25.8552 14.9853C25.9338 14.8761 25.9881 14.7512 26.0142 14.6192C26.3323 13.0128 26.3311 11.3595 26.0106 9.75359ZM13.1271 16.8774C12.2 16.8774 11.2937 16.6025 10.5228 16.0874C9.75196 15.5724 9.15115 14.8403 8.79637 13.9837C8.44158 13.1272 8.34875 12.1847 8.52962 11.2754C8.71049 10.3661 9.15693 9.53091 9.81249 8.87536C10.468 8.2198 11.3033 7.77336 12.2126 7.59249C13.1219 7.41162 14.0644 7.50445 14.9209 7.85923C15.7774 8.21402 16.5095 8.81483 17.0246 9.58568C17.5396 10.3565 17.8146 11.2628 17.8146 12.1899C17.8146 13.4331 17.3207 14.6254 16.4416 15.5045C15.5625 16.3836 14.3703 16.8774 13.1271 16.8774Z" fill="var(--fill-0, #E5435A)"/>
</svg>
