<svg width="24" height="24" viewBox="0 0 24 24" fill="none" xmlns="http://www.w3.org/2000/svg">
<path d="M12 18.2021L6.55469 21.832C6.38808 21.9434 6.19159 22.0025 5.99121 22.001C5.79087 21.9994 5.59551 21.9371 5.43066 21.8232C5.26581 21.7093 5.13874 21.5482 5.06641 21.3613C4.99419 21.1746 4.98025 20.9705 5.02539 20.7754L6.51465 14.3232L2.30176 10.2158C2.16427 10.0817 2.06838 9.91081 2.02539 9.72363C1.98241 9.53641 1.9943 9.34083 2.05957 9.16016C2.12485 8.9795 2.24084 8.82159 2.39355 8.70508C2.54632 8.58857 2.72938 8.51812 2.9209 8.50293L8.62207 8.0498L11.0889 2.58789C11.1676 2.4122 11.2954 2.26287 11.457 2.1582C11.6187 2.05357 11.8075 1.998 12 1.99805V18.2021Z" fill="#E5435A"/>
<path d="M12 18.2021L17.4454 21.832C17.612 21.9434 17.8085 22.0025 18.0088 22.001C18.2092 21.9994 18.4045 21.9371 18.5694 21.8232C18.7342 21.7093 18.8613 21.5482 18.9336 21.3613C19.0059 21.1746 19.0198 20.9705 18.9747 20.7754L17.4854 14.3232L21.6983 10.2158C21.8358 10.0817 21.9317 9.91081 21.9747 9.72363C22.0176 9.53641 22.0057 9.34083 21.9405 9.16016C21.8752 8.9795 21.7592 8.82159 21.6065 8.70508C21.4537 8.58857 21.2707 8.51812 21.0791 8.50293L15.378 8.0498L12.9112 2.58789C12.8325 2.4122 12.7046 2.26287 12.543 2.1582C12.3814 2.05357 12.1926 1.998 12 1.99805V18.2021Z" fill="#AAAAB1"/>
</svg>
