<svg preserveAspectRatio="none" width="100%" height="100%" overflow="visible" style="display: block;" viewBox="0 0 17 20" fill="none" xmlns="http://www.w3.org/2000/svg">
<path id="Vector" d="M8.25 2.75C6.61831 2.75 5.02326 3.23385 3.66655 4.14038C2.30984 5.0469 1.25242 6.33537 0.627998 7.84286C0.00357461 9.35035 -0.159803 11.0092 0.158525 12.6095C0.476853 14.2098 1.26259 15.6798 2.41637 16.8336C3.57016 17.9874 5.04017 18.7732 6.64051 19.0915C8.24085 19.4098 9.89965 19.2464 11.4071 18.622C12.9146 17.9976 14.2031 16.9402 15.1096 15.5835C16.0161 14.2268 16.5 12.6317 16.5 11C16.4975 8.81273 15.6275 6.71577 14.0809 5.16913C12.5342 3.6225 10.4373 2.7525 8.25 2.75ZM12.1739 8.04891L8.73641 11.4864C8.67253 11.5503 8.5967 11.601 8.51325 11.6355C8.42979 11.6701 8.34034 11.6879 8.25 11.6879C8.15967 11.6879 8.07022 11.6701 7.98676 11.6355C7.9033 11.601 7.82747 11.5503 7.7636 11.4864C7.69972 11.4225 7.64905 11.3467 7.61448 11.2632C7.57991 11.1798 7.56212 11.0903 7.56212 11C7.56212 10.9097 7.57991 10.8202 7.61448 10.7368C7.64905 10.6533 7.69972 10.5775 7.7636 10.5136L11.2011 7.07609C11.265 7.01222 11.3408 6.96155 11.4243 6.92698C11.5077 6.89241 11.5972 6.87462 11.6875 6.87462C11.7778 6.87462 11.8673 6.89241 11.9507 6.92698C12.0342 6.96155 12.11 7.01222 12.1739 7.07609C12.2378 7.13997 12.2885 7.2158 12.323 7.29926C12.3576 7.38272 12.3754 7.47217 12.3754 7.5625C12.3754 7.65283 12.3576 7.74228 12.323 7.82574C12.2885 7.9092 12.2378 7.98503 12.1739 8.04891ZM5.5 0.6875C5.5 0.505164 5.57244 0.330295 5.70137 0.201364C5.8303 0.0724328 6.00517 0 6.1875 0H10.3125C10.4948 0 10.6697 0.0724328 10.7986 0.201364C10.9276 0.330295 11 0.505164 11 0.6875C11 0.869836 10.9276 1.0447 10.7986 1.17364C10.6697 1.30257 10.4948 1.375 10.3125 1.375H6.1875C6.00517 1.375 5.8303 1.30257 5.70137 1.17364C5.57244 1.0447 5.5 0.869836 5.5 0.6875Z" fill="var(--fill-0, #FF687E)"/>
</svg>
