<svg preserveAspectRatio="none" width="100%" height="100%" overflow="visible" style="display: block;" viewBox="0 0 25 23" fill="none" xmlns="http://www.w3.org/2000/svg">
<path id="Vector" d="M24.375 2.8125V15.9375C24.375 16.6834 24.0787 17.3988 23.5512 17.9262C23.0238 18.4537 22.3084 18.75 21.5625 18.75H2.8125C2.06658 18.75 1.35121 18.4537 0.823762 17.9262C0.296316 17.3988 0 16.6834 0 15.9375V2.8125C0 2.06658 0.296316 1.35121 0.823762 0.823762C1.35121 0.296316 2.06658 0 2.8125 0H21.5625C22.3084 0 23.0238 0.296316 23.5512 0.823762C24.0787 1.35121 24.375 2.06658 24.375 2.8125ZM15.9375 20.625H8.4375C8.18886 20.625 7.9504 20.7238 7.77459 20.8996C7.59877 21.0754 7.5 21.3139 7.5 21.5625C7.5 21.8111 7.59877 22.0496 7.77459 22.2254C7.9504 22.4012 8.18886 22.5 8.4375 22.5H15.9375C16.1861 22.5 16.4246 22.4012 16.6004 22.2254C16.7762 22.0496 16.875 21.8111 16.875 21.5625C16.875 21.3139 16.7762 21.0754 16.6004 20.8996C16.4246 20.7238 16.1861 20.625 15.9375 20.625Z" fill="var(--fill-0, #CCCCD6)"/>
</svg>
