<svg preserveAspectRatio="none" width="100%" height="100%" overflow="visible" style="display: block;" viewBox="0 0 12 14" fill="none" xmlns="http://www.w3.org/2000/svg">
<path d="M11 4.5H4.5V3C4.5 2.60218 4.65804 2.22064 4.93934 1.93934C5.22064 1.65804 5.60218 1.5 6 1.5C6.72045 1.5 7.36875 1.97813 7.5075 2.59453C7.5281 2.68117 7.586 2.75577 7.66865 2.79994C7.7513 2.84411 7.85195 2.85351 7.9488 2.82387C8.04565 2.79423 8.1308 2.72717 8.1858 2.63507C8.2408 2.54298 8.2612 2.4325 8.2425 2.32547C8.0306 1.26203 7.0875 0.5 6 0.5C5.40326 0.500621 4.83152 0.737875 4.40969 1.15969C3.98787 1.58152 3.75062 2.15345 3.75 2.75V4.5H2.25C2.05109 4.5 1.86032 4.57902 1.71967 4.71967C1.57902 4.86032 1.5 5.05109 1.5 5.25V12.75C1.5 12.9489 1.57902 13.1397 1.71967 13.2803C1.86032 13.421 2.05109 13.5 2.25 13.5H11C11.1989 13.5 11.3897 13.421 11.5303 13.2803C11.671 13.1397 11.75 12.9489 11.75 12.75V5.25C11.75 5.05109 11.671 4.86032 11.5303 4.71967C11.3897 4.57902 11.1989 4.5 11 4.5ZM6.375 9.43578V11.25C6.375 11.3495 6.33549 11.4448 6.26517 11.5152C6.19484 11.5855 6.09946 11.625 6 11.625C5.90054 11.625 5.80516 11.5855 5.73484 11.5152C5.66451 11.4448 5.625 11.3495 5.625 11.25V9.43578C5.3748 9.34722 5.16639 9.17217 5.03809 8.94457C4.90979 8.71696 4.86588 8.45145 4.9162 8.19488C4.96653 7.93832 5.10792 7.70584 5.31659 7.54166C5.52525 7.37748 5.78845 7.28763 6.06 7.28763C6.33155 7.28763 6.59475 7.37748 6.80342 7.54166C7.01208 7.70584 7.15347 7.93832 7.2038 8.19488C7.25412 8.45145 7.21021 8.71696 7.08191 8.94457C6.95361 9.17217 6.7452 9.34722 6.495 9.43578Z" fill="var(--fill-0, #DFDFE2)"/>
</svg>
