<svg preserveAspectRatio="none" width="100%" height="100%" overflow="visible" style="display: block;" viewBox="0 0 105 98" fill="none" xmlns="http://www.w3.org/2000/svg">
<path id="Vector" d="M71.9859 22.7701C68.5922 14.8246 62.5589 8.29474 54.906 4.28441C47.2532 0.274074 38.4503 -0.970656 29.9856 0.760649C21.5209 2.49195 13.9137 7.09308 8.45003 13.7862C2.98637 20.4792 0.00148991 28.8536 0 37.4936V67.4936C0 69.4827 0.790176 71.3904 2.1967 72.7969C3.60322 74.2034 5.51088 74.9936 7.5 74.9936H33.1266C36.0529 81.6763 40.8616 87.3625 46.9655 91.358C53.0695 95.3535 60.2046 97.4855 67.5 97.4936H97.5C99.4891 97.4936 101.397 96.7034 102.803 95.2969C104.21 93.8904 105 91.9827 105 89.9936V59.9936C104.998 50.8261 101.638 41.9768 95.5553 35.1182C89.4723 28.2596 81.0876 23.8668 71.9859 22.7701ZM97.5 89.9936H67.5C62.1952 89.9875 56.9865 88.578 52.4025 85.9082C47.8186 83.2383 44.0226 79.4032 41.4 74.792C46.5362 74.2591 51.5067 72.6701 55.9997 70.125C60.4926 67.5799 64.411 64.1335 67.5088 60.0022C70.6067 55.8709 72.8171 51.1438 74.0013 46.1177C75.1856 41.0916 75.3181 35.8749 74.3906 30.7951C80.9684 32.3475 86.8294 36.0755 91.0237 41.375C95.2181 46.6745 97.5001 53.2351 97.5 59.9936V89.9936Z" fill="var(--fill-0, #212126)"/>
</svg>
